<svg xmlns="http://www.w3.org/2000/svg" viewBox="0 0 100 100">
  <defs>
    <linearGradient id="g" x1="0" y1="0" x2="1" y2="1">
      <stop offset="0%" stop-color="#1d4ed8"/>
      <stop offset="100%" stop-color="#1e3a8a"/>
    </linearGradient>
  </defs>
  <!-- Hintergrund -->
  <rect width="100" height="100" rx="26" fill="url(#g)"/>
  <!-- Visor / Blende oben -->
  <rect x="15" y="14" width="48" height="9" rx="4" fill="white" opacity="0.88"/>
  <!-- Hauptkoerper -->
  <rect x="20" y="21" width="38" height="57" rx="4" fill="white" opacity="0.96"/>
  <!-- Display-Rahmen -->
  <rect x="24" y="26" width="30" height="22" rx="3" fill="#1e3a8a"/>
  <!-- Display-Bildschirm -->
  <rect x="25.5" y="27.5" width="27" height="19" rx="2" fill="#0f172a"/>
  <!-- Preis auf Display -->
  <text x="39" y="37" font-size="7.5" fill="#60a5fa" text-anchor="middle" font-family="monospace" font-weight="bold">1.99</text>
  <text x="39" y="45" font-size="5" fill="#475569" text-anchor="middle" font-family="monospace">E5 Super</text>
  <!-- Trennlinie -->
  <line x1="24" y1="51" x2="58" y2="51" stroke="#e2e8f0" stroke-width="0.6" opacity="0.3"/>
  <!-- Tastenfeld (2x3) -->
  <rect x="25" y="54" width="8" height="5" rx="1.5" fill="#bfdbfe" opacity="0.45"/>
  <rect x="35" y="54" width="8" height="5" rx="1.5" fill="#bfdbfe" opacity="0.45"/>
  <rect x="45" y="54" width="8" height="5" rx="1.5" fill="#bfdbfe" opacity="0.45"/>
  <rect x="25" y="61" width="8" height="5" rx="1.5" fill="#bfdbfe" opacity="0.35"/>
  <rect x="35" y="61" width="8" height="5" rx="1.5" fill="#bfdbfe" opacity="0.35"/>
  <rect x="45" y="61" width="8" height="5" rx="1.5" fill="#93c5fd" opacity="0.5"/>
  <!-- Schlauchhalter-Schlitz rechts am Koerper -->
  <rect x="58" y="34" width="5" height="22" rx="2.5" fill="#1e40af" opacity="0.6"/>
  <rect x="59" y="36" width="3" height="18" rx="1.5" fill="#1e3a8a" opacity="0.8"/>
  <!-- Schlauch -->
  <path d="M63 46 Q78 46 78 60 L78 72" stroke="white" stroke-width="4" fill="none" stroke-linecap="round" opacity="0.88"/>
  <!-- Zapfpistole Griff -->
  <rect x="70" y="70" width="16" height="7" rx="3" fill="white" opacity="0.95"/>
  <!-- Zapfpistole Abzug -->
  <rect x="72" y="76" width="5" height="5" rx="1.5" fill="#bfdbfe" opacity="0.85"/>
  <!-- Zapfpistole Duese -->
  <rect x="85" y="71.5" width="8" height="4" rx="2" fill="#93c5fd" opacity="0.8"/>
  <!-- Sockel -->
  <rect x="16" y="77" width="46" height="5" rx="2.5" fill="white" opacity="0.5"/>
</svg>
